# xmcd CD database file
#
# Track frame offsets:
#	150
#	21744
#	45504
#	69322
#	92612
#	121021
#	161776
#	199967
#	221822
#	243465
#	275683
#	294737
#	309833
#
# Disc length: 4377 seconds
#
# Revision: 0
# Processed by: cddbd v1.5.2PL0 Copyright (c) Steve Scherf et al.
# Submitted via: CDex 1.50
#
DISCID=c311170d
DTITLE=Massimo Moriconi - Masimo Moriconi
DYEAR=2001
DGENRE=Blues
TTITLE0=Blues
TTITLE1=Così (con Mina)
TTITLE2=Yestardays
TTITLE3=Old folks
TTITLE4=Adoro quando lo fai
TTITLE5=Pensando Jaco
TTITLE6=I giardini di marzo
TTITLE7=Nuvole
TTITLE8=Funkrock
TTITLE9=I love you
TTITLE10=C'è blues e blues
TTITLE11=Blues 2
TTITLE12=Zoe unplugged
EXTD=YEAR: 2001
EXTT0=
EXTT1=
EXTT2=
EXTT3=
EXTT4=
EXTT5=
EXTT6=
EXTT7=
EXTT8=
EXTT9=
EXTT10=
EXTT11=
EXTT12=
PLAYORDER=
